# Blender 5.1.1
# www.blender.org
mtllib Untitl455d.mtl
o ChorusPunt_Axe_LOD0
v 0.016432 -0.088910 0.090827 1.0000 1.0000 1.0000
v 0.017030 -0.306594 0.077713 1.0000 1.0000 1.0000
v 0.024705 -0.088911 0.084031 1.0000 1.0000 1.0000
v 0.011759 -0.306594 0.082053 1.0000 1.0000 1.0000
v 0.014340 -0.441325 0.075550 1.0000 1.0000 1.0000
v 0.006189 -0.088911 0.093941 1.0000 1.0000 1.0000
v 0.010102 -0.441325 0.079025 1.0000 1.0000 1.0000
v 0.005229 -0.306594 0.084046 1.0000 1.0000 1.0000
v -0.001622 -0.306594 0.083373 1.0000 1.0000 1.0000
v -0.004494 -0.088911 0.092893 1.0000 1.0000 1.0000
v 0.004868 -0.441325 0.080613 1.0000 1.0000 1.0000
v -0.007593 -0.306594 0.080180 1.0000 1.0000 1.0000
v -0.013912 -0.088911 0.087856 1.0000 1.0000 1.0000
v -0.020712 -0.088910 0.079583 1.0000 1.0000 1.0000
v -0.000597 -0.441325 0.080075 1.0000 1.0000 1.0000
v -0.011934 -0.306594 0.074909 1.0000 1.0000 1.0000
v -0.023824 -0.088911 0.069312 1.0000 1.0000 1.0000
v -0.005421 -0.441325 0.077496 1.0000 1.0000 1.0000
v -0.013931 -0.306594 0.068322 1.0000 1.0000 1.0000
v 0.004898 -0.464113 0.080919 1.0000 1.0000 1.0000
v -0.000687 -0.464113 0.080369 1.0000 1.0000 1.0000
v 0.010252 -0.464113 0.079293 1.0000 1.0000 1.0000
v 0.014581 -0.464112 0.075740 1.0000 1.0000 1.0000
v 0.004975 -0.475591 0.081753 1.0000 1.0000 1.0000
v 0.010646 -0.475591 0.080032 1.0000 1.0000 1.0000
v 0.015228 -0.475591 0.076271 1.0000 1.0000 1.0000
v -0.000924 -0.475591 0.081172 1.0000 1.0000 1.0000
v 0.011054 -0.481309 0.080795 1.0000 1.0000 1.0000
v 0.015896 -0.481309 0.076819 1.0000 1.0000 1.0000
v 0.005059 -0.481309 0.082614 1.0000 1.0000 1.0000
v 0.011665 -0.486900 0.081921 1.0000 1.0000 1.0000
v 0.016891 -0.486899 0.077626 1.0000 1.0000 1.0000
v 0.005193 -0.486899 0.083889 1.0000 1.0000 1.0000
v -0.001175 -0.481309 0.082000 1.0000 1.0000 1.0000
v 0.012863 -0.494210 0.084162 1.0000 1.0000 1.0000
v 0.018855 -0.494212 0.079238 1.0000 1.0000 1.0000
v 0.022732 -0.497970 0.082410 1.0000 1.0000 1.0000
v 0.005439 -0.494211 0.086420 1.0000 1.0000 1.0000
v 0.015214 -0.497963 0.088590 1.0000 1.0000 1.0000
v 0.016564 -0.501517 0.091161 1.0000 1.0000 1.0000
v 0.024991 -0.501521 0.084202 1.0000 1.0000 1.0000
v 0.005926 -0.497962 0.091415 1.0000 1.0000 1.0000
v 0.017109 -0.506879 0.092413 1.0000 1.0000 1.0000
v 0.026107 -0.506867 0.084912 1.0000 1.0000 1.0000
v 0.025615 -0.512094 0.084080 1.0000 1.0000 1.0000
v 0.006213 -0.501517 0.094325 1.0000 1.0000 1.0000
v 0.016528 -0.512113 0.091792 1.0000 1.0000 1.0000
v 0.023661 -0.516556 0.081971 1.0000 1.0000 1.0000
v 0.006351 -0.506894 0.095733 1.0000 1.0000 1.0000
v 0.015287 -0.516429 0.089443 1.0000 1.0000 1.0000
v 0.020705 -0.518814 0.080767 1.0000 1.0000 1.0000
v 0.013985 -0.518718 0.086261 1.0000 1.0000 1.0000
v 0.005669 -0.518681 0.088807 1.0000 1.0000 1.0000
v 0.006278 -0.512164 0.094986 1.0000 1.0000 1.0000
v 0.006190 -0.516443 0.092374 1.0000 1.0000 1.0000
v -0.003343 -0.516468 0.091439 1.0000 1.0000 1.0000
v -0.002984 -0.518726 0.087937 1.0000 1.0000 1.0000
v -0.004434 -0.512142 0.093905 1.0000 1.0000 1.0000
v -0.011850 -0.516556 0.086812 1.0000 1.0000 1.0000
v -0.010645 -0.518814 0.083853 1.0000 1.0000 1.0000
v -0.004829 -0.506887 0.094619 1.0000 1.0000 1.0000
v -0.019321 -0.516434 0.078409 1.0000 1.0000 1.0000
v -0.016141 -0.518706 0.077135 1.0000 1.0000 1.0000
v -0.018689 -0.518665 0.068819 1.0000 1.0000 1.0000
v -0.013959 -0.512094 0.088765 1.0000 1.0000 1.0000
v -0.021673 -0.512112 0.079659 1.0000 1.0000 1.0000
v -0.022252 -0.516442 0.069339 1.0000 1.0000 1.0000
v -0.024865 -0.512164 0.069427 1.0000 1.0000 1.0000
v -0.021311 -0.516473 0.059832 1.0000 1.0000 1.0000
v -0.017818 -0.518715 0.060164 1.0000 1.0000 1.0000
v -0.023782 -0.512142 0.058734 1.0000 1.0000 1.0000
v -0.016690 -0.516556 0.051299 1.0000 1.0000 1.0000
v -0.013734 -0.518814 0.052503 1.0000 1.0000 1.0000
v -0.025612 -0.506894 0.069501 1.0000 1.0000 1.0000
v -0.008316 -0.516430 0.043827 1.0000 1.0000 1.0000
v -0.007014 -0.518718 0.047009 1.0000 1.0000 1.0000
v 0.001302 -0.518681 0.044463 1.0000 1.0000 1.0000
v -0.018644 -0.512094 0.049189 1.0000 1.0000 1.0000
v 0.000781 -0.516443 0.040895 1.0000 1.0000 1.0000
v -0.009557 -0.512113 0.041478 1.0000 1.0000 1.0000
v 0.000693 -0.512165 0.038284 1.0000 1.0000 1.0000
v 0.010315 -0.516468 0.041831 1.0000 1.0000 1.0000
v 0.009955 -0.518726 0.045332 1.0000 1.0000 1.0000
v 0.011407 -0.512143 0.039366 1.0000 1.0000 1.0000
v 0.018821 -0.516556 0.046458 1.0000 1.0000 1.0000
v 0.017616 -0.518814 0.049416 1.0000 1.0000 1.0000
v 0.000620 -0.506892 0.037537 1.0000 1.0000 1.0000
v 0.026292 -0.516434 0.054861 1.0000 1.0000 1.0000
v 0.023112 -0.518706 0.056134 1.0000 1.0000 1.0000
v 0.025661 -0.518665 0.064451 1.0000 1.0000 1.0000
v 0.020930 -0.512094 0.044505 1.0000 1.0000 1.0000
v 0.029224 -0.516442 0.063931 1.0000 1.0000 1.0000
v 0.028644 -0.512112 0.053610 1.0000 1.0000 1.0000
v 0.031836 -0.512164 0.063843 1.0000 1.0000 1.0000
v 0.028283 -0.516473 0.073438 1.0000 1.0000 1.0000
v 0.024789 -0.518715 0.073105 1.0000 1.0000 1.0000
v 0.023661 -0.516556 0.081971 1.0000 1.0000 1.0000
v 0.020705 -0.518814 0.080767 1.0000 1.0000 1.0000
v 0.030754 -0.512142 0.074536 1.0000 1.0000 1.0000
v 0.025615 -0.512094 0.084080 1.0000 1.0000 1.0000
v 0.032583 -0.506894 0.063769 1.0000 1.0000 1.0000
v 0.031468 -0.506886 0.074944 1.0000 1.0000 1.0000
v 0.026107 -0.506867 0.084912 1.0000 1.0000 1.0000
v 0.024991 -0.501521 0.084202 1.0000 1.0000 1.0000
v 0.030112 -0.501519 0.074652 1.0000 1.0000 1.0000
v 0.022732 -0.497970 0.082410 1.0000 1.0000 1.0000
v 0.029264 -0.506877 0.053020 1.0000 1.0000 1.0000
v 0.031176 -0.501517 0.063908 1.0000 1.0000 1.0000
v 0.021761 -0.506863 0.044013 1.0000 1.0000 1.0000
v 0.027313 -0.497966 0.073848 1.0000 1.0000 1.0000
v 0.028009 -0.501512 0.053559 1.0000 1.0000 1.0000
v 0.021051 -0.501511 0.045133 1.0000 1.0000 1.0000
v 0.011800 -0.506883 0.038651 1.0000 1.0000 1.0000
v 0.011503 -0.501509 0.040012 1.0000 1.0000 1.0000
v 0.019258 -0.497961 0.047392 1.0000 1.0000 1.0000
v 0.025438 -0.497958 0.054909 1.0000 1.0000 1.0000
v 0.028266 -0.497962 0.064194 1.0000 1.0000 1.0000
v 0.023270 -0.494211 0.064680 1.0000 1.0000 1.0000
v 0.016099 -0.494213 0.051273 1.0000 1.0000 1.0000
v 0.022510 -0.494211 0.072398 1.0000 1.0000 1.0000
v 0.018855 -0.494212 0.079238 1.0000 1.0000 1.0000
v 0.016891 -0.486899 0.077626 1.0000 1.0000 1.0000
v 0.020073 -0.486899 0.071675 1.0000 1.0000 1.0000
v 0.015896 -0.481309 0.076819 1.0000 1.0000 1.0000
v 0.021015 -0.494213 0.057259 1.0000 1.0000 1.0000
v 0.018850 -0.481309 0.071295 1.0000 1.0000 1.0000
v 0.015228 -0.475591 0.076271 1.0000 1.0000 1.0000
v 0.020741 -0.486899 0.064943 1.0000 1.0000 1.0000
v 0.018779 -0.486900 0.058469 1.0000 1.0000 1.0000
v 0.018022 -0.475591 0.071044 1.0000 1.0000 1.0000
v 0.014581 -0.464112 0.075740 1.0000 1.0000 1.0000
v 0.019465 -0.481309 0.065061 1.0000 1.0000 1.0000
v 0.017219 -0.464112 0.070807 1.0000 1.0000 1.0000
v 0.014340 -0.441325 0.075550 1.0000 1.0000 1.0000
v 0.018604 -0.475591 0.065146 1.0000 1.0000 1.0000
v 0.017645 -0.481309 0.059066 1.0000 1.0000 1.0000
v 0.016883 -0.475591 0.059474 1.0000 1.0000 1.0000
v 0.017770 -0.464113 0.065234 1.0000 1.0000 1.0000
v 0.016147 -0.464113 0.059874 1.0000 1.0000 1.0000
v 0.016925 -0.441325 0.070717 1.0000 1.0000 1.0000
v 0.020238 -0.306594 0.071686 1.0000 1.0000 1.0000
v 0.017030 -0.306594 0.077713 1.0000 1.0000 1.0000
v 0.024705 -0.088911 0.084031 1.0000 1.0000 1.0000
v 0.029746 -0.088910 0.074586 1.0000 1.0000 1.0000
v 0.030789 -0.088911 0.063959 1.0000 1.0000 1.0000
v 0.020900 -0.306594 0.064948 1.0000 1.0000 1.0000
v 0.017464 -0.441325 0.065264 1.0000 1.0000 1.0000
v 0.015876 -0.441325 0.060018 1.0000 1.0000 1.0000
v 0.018903 -0.306594 0.058361 1.0000 1.0000 1.0000
v 0.027676 -0.088911 0.053689 1.0000 1.0000 1.0000
v 0.012400 -0.441325 0.055781 1.0000 1.0000 1.0000
v 0.014607 -0.306594 0.053128 1.0000 1.0000 1.0000
v 0.020900 -0.088911 0.045436 1.0000 1.0000 1.0000
v 0.011437 -0.088910 0.040375 1.0000 1.0000 1.0000
v 0.008537 -0.306594 0.049883 1.0000 1.0000 1.0000
v 0.000783 -0.088911 0.039334 1.0000 1.0000 1.0000
v 0.012590 -0.464113 0.055539 1.0000 1.0000 1.0000
v 0.007568 -0.441325 0.053195 1.0000 1.0000 1.0000
v 0.013122 -0.475591 0.054892 1.0000 1.0000 1.0000
v 0.007651 -0.464112 0.052900 1.0000 1.0000 1.0000
v 0.007895 -0.475590 0.052099 1.0000 1.0000 1.0000
v 0.013670 -0.481310 0.054224 1.0000 1.0000 1.0000
v 0.008145 -0.481308 0.051271 1.0000 1.0000 1.0000
v 0.014477 -0.486900 0.053230 1.0000 1.0000 1.0000
v 0.008510 -0.486898 0.050043 1.0000 1.0000 1.0000
v 0.009262 -0.494211 0.047614 1.0000 1.0000 1.0000
v 0.001794 -0.486899 0.049380 1.0000 1.0000 1.0000
v 0.010698 -0.497956 0.042813 1.0000 1.0000 1.0000
v 0.001544 -0.494210 0.046849 1.0000 1.0000 1.0000
v 0.000758 -0.501512 0.038946 1.0000 1.0000 1.0000
v 0.001045 -0.497957 0.041857 1.0000 1.0000 1.0000
v -0.005878 -0.494211 0.049099 1.0000 1.0000 1.0000
v -0.008241 -0.497958 0.044682 1.0000 1.0000 1.0000
v -0.009593 -0.501512 0.042111 1.0000 1.0000 1.0000
v -0.004694 -0.486900 0.051349 1.0000 1.0000 1.0000
v -0.011873 -0.494211 0.054020 1.0000 1.0000 1.0000
v -0.009920 -0.486899 0.055644 1.0000 1.0000 1.0000
v -0.015759 -0.497965 0.050861 1.0000 1.0000 1.0000
v -0.015534 -0.494209 0.060857 1.0000 1.0000 1.0000
v -0.008925 -0.481309 0.056450 1.0000 1.0000 1.0000
v -0.013102 -0.486899 0.061595 1.0000 1.0000 1.0000
v -0.004083 -0.481309 0.052475 1.0000 1.0000 1.0000
v 0.001912 -0.481309 0.050656 1.0000 1.0000 1.0000
v -0.008257 -0.475591 0.056998 1.0000 1.0000 1.0000
v 0.001996 -0.475591 0.051517 1.0000 1.0000 1.0000
v -0.003675 -0.475591 0.053237 1.0000 1.0000 1.0000
v 0.002080 -0.464113 0.052351 1.0000 1.0000 1.0000
v -0.003286 -0.464113 0.053979 1.0000 1.0000 1.0000
v -0.007613 -0.464112 0.057534 1.0000 1.0000 1.0000
v 0.002103 -0.441325 0.052657 1.0000 1.0000 1.0000
v -0.003141 -0.441325 0.054250 1.0000 1.0000 1.0000
v 0.001742 -0.306594 0.049226 1.0000 1.0000 1.0000
v -0.004787 -0.306594 0.051217 1.0000 1.0000 1.0000
v -0.009459 -0.088911 0.042444 1.0000 1.0000 1.0000
v -0.007375 -0.441325 0.057729 1.0000 1.0000 1.0000
v -0.010057 -0.306594 0.055558 1.0000 1.0000 1.0000
v -0.017730 -0.088911 0.049241 1.0000 1.0000 1.0000
v -0.022767 -0.088911 0.058657 1.0000 1.0000 1.0000
v -0.013250 -0.306594 0.061528 1.0000 1.0000 1.0000
v -0.009957 -0.441325 0.062563 1.0000 1.0000 1.0000
v -0.010249 -0.464112 0.062467 1.0000 1.0000 1.0000
v -0.011051 -0.475591 0.062225 1.0000 1.0000 1.0000
v -0.010799 -0.464112 0.068041 1.0000 1.0000 1.0000
v -0.011879 -0.481309 0.061975 1.0000 1.0000 1.0000
v -0.011633 -0.475591 0.068124 1.0000 1.0000 1.0000
v -0.012494 -0.481309 0.068209 1.0000 1.0000 1.0000
v -0.013770 -0.486899 0.068326 1.0000 1.0000 1.0000
v -0.010493 -0.441325 0.068017 1.0000 1.0000 1.0000
v -0.008900 -0.441325 0.073261 1.0000 1.0000 1.0000
v -0.009174 -0.464113 0.073400 1.0000 1.0000 1.0000
v -0.005615 -0.464113 0.077734 1.0000 1.0000 1.0000
v -0.009912 -0.475591 0.073796 1.0000 1.0000 1.0000
v -0.006151 -0.475591 0.078378 1.0000 1.0000 1.0000
v -0.010675 -0.481309 0.074203 1.0000 1.0000 1.0000
v -0.006699 -0.481310 0.079046 1.0000 1.0000 1.0000
v -0.011808 -0.486899 0.074801 1.0000 1.0000 1.0000
v -0.001555 -0.486899 0.083223 1.0000 1.0000 1.0000
v -0.007506 -0.486900 0.080041 1.0000 1.0000 1.0000
v -0.002279 -0.494209 0.085659 1.0000 1.0000 1.0000
v -0.003729 -0.497965 0.090462 1.0000 1.0000 1.0000
v -0.009126 -0.494211 0.081997 1.0000 1.0000 1.0000
v -0.004534 -0.501519 0.093262 1.0000 1.0000 1.0000
v -0.012290 -0.497970 0.085881 1.0000 1.0000 1.0000
v -0.014046 -0.494212 0.076007 1.0000 1.0000 1.0000
v -0.014082 -0.501521 0.088140 1.0000 1.0000 1.0000
v -0.014791 -0.506867 0.089257 1.0000 1.0000 1.0000
v -0.022293 -0.506881 0.080251 1.0000 1.0000 1.0000
v -0.021042 -0.501522 0.079713 1.0000 1.0000 1.0000
v -0.018472 -0.497967 0.078364 1.0000 1.0000 1.0000
v -0.024205 -0.501517 0.069362 1.0000 1.0000 1.0000
v -0.016300 -0.494211 0.068579 1.0000 1.0000 1.0000
v -0.021294 -0.497963 0.069075 1.0000 1.0000 1.0000
v -0.020342 -0.497965 0.059421 1.0000 1.0000 1.0000
v -0.023141 -0.501519 0.058618 1.0000 1.0000 1.0000
v -0.018018 -0.501516 0.049069 1.0000 1.0000 1.0000
v -0.024497 -0.506886 0.058326 1.0000 1.0000 1.0000
v -0.019136 -0.506865 0.048358 1.0000 1.0000 1.0000
v -0.010138 -0.506877 0.040857 1.0000 1.0000 1.0000
v 0.031188 0.502577 0.089368 1.0000 1.0000 1.0000
v 0.029077 0.507394 0.074398 1.0000 1.0000 1.0000
v 0.024136 0.507314 0.083579 1.0000 1.0000 1.0000
v 0.037779 0.502576 0.077037 1.0000 1.0000 1.0000
v 0.035391 0.497233 0.092817 1.0000 1.0000 1.0000
v 0.039146 0.502577 0.063122 1.0000 1.0000 1.0000
v 0.030069 0.507314 0.064019 1.0000 1.0000 1.0000
v 0.027044 0.507301 0.054043 1.0000 1.0000 1.0000
v 0.042981 0.497232 0.078614 1.0000 1.0000 1.0000
v 0.044554 0.497234 0.062589 1.0000 1.0000 1.0000
v 0.035090 0.502576 0.049741 1.0000 1.0000 1.0000
v 0.047561 0.487964 0.080004 1.0000 1.0000 1.0000
v 0.039091 0.487964 0.095853 1.0000 1.0000 1.0000
v 0.049315 0.487965 0.062120 1.0000 1.0000 1.0000
v 0.039883 0.497232 0.047178 1.0000 1.0000 1.0000
v 0.026218 0.502577 0.038935 1.0000 1.0000 1.0000
v 0.020430 0.507314 0.045984 1.0000 1.0000 1.0000
v 0.011249 0.507393 0.041045 1.0000 1.0000 1.0000
v 0.029665 0.497233 0.034734 1.0000 1.0000 1.0000
v 0.044103 0.487963 0.044922 1.0000 1.0000 1.0000
v 0.013888 0.502576 0.032341 1.0000 1.0000 1.0000
v -0.000027 0.502577 0.030974 1.0000 1.0000 1.0000
v 0.000870 0.507314 0.040051 1.0000 1.0000 1.0000
v -0.009106 0.507301 0.043076 1.0000 1.0000 1.0000
v 0.015465 0.497231 0.027140 1.0000 1.0000 1.0000
v -0.000559 0.497233 0.025566 1.0000 1.0000 1.0000
v -0.013407 0.502576 0.035029 1.0000 1.0000 1.0000
v -0.024213 0.502577 0.043902 1.0000 1.0000 1.0000
v -0.017165 0.507314 0.049690 1.0000 1.0000 1.0000
v -0.022106 0.507393 0.058871 1.0000 1.0000 1.0000
v -0.015969 0.497231 0.030236 1.0000 1.0000 1.0000
v -0.030808 0.502576 0.056231 1.0000 1.0000 1.0000
v -0.028414 0.497233 0.040454 1.0000 1.0000 1.0000
v -0.032179 0.502577 0.070147 1.0000 1.0000 1.0000
v -0.023098 0.507314 0.069250 1.0000 1.0000 1.0000
v -0.020073 0.507301 0.079226 1.0000 1.0000 1.0000
v -0.036009 0.497232 0.054653 1.0000 1.0000 1.0000
v -0.028123 0.502576 0.083529 1.0000 1.0000 1.0000
v -0.037589 0.497233 0.070681 1.0000 1.0000 1.0000
v -0.019249 0.502577 0.094337 1.0000 1.0000 1.0000
v -0.013459 0.507314 0.087285 1.0000 1.0000 1.0000
v -0.004278 0.507393 0.092224 1.0000 1.0000 1.0000
v -0.032919 0.497232 0.086093 1.0000 1.0000 1.0000
v -0.006918 0.502576 0.100931 1.0000 1.0000 1.0000
v -0.022698 0.497234 0.098540 1.0000 1.0000 1.0000
v -0.042354 0.487965 0.071150 1.0000 1.0000 1.0000
v -0.037143 0.487963 0.088351 1.0000 1.0000 1.0000
v -0.040589 0.487964 0.053264 1.0000 1.0000 1.0000
v -0.043035 0.478204 0.071217 1.0000 1.0000 1.0000
v -0.032112 0.487965 0.037419 1.0000 1.0000 1.0000
v -0.041244 0.478204 0.053066 1.0000 1.0000 1.0000
v -0.018225 0.487963 0.026015 1.0000 1.0000 1.0000
v -0.032641 0.478204 0.036985 1.0000 1.0000 1.0000
v -0.001028 0.487965 0.020804 1.0000 1.0000 1.0000
v -0.018547 0.478204 0.025413 1.0000 1.0000 1.0000
v 0.016854 0.487963 0.022560 1.0000 1.0000 1.0000
v -0.001095 0.478204 0.020124 1.0000 1.0000 1.0000
v 0.032700 0.487965 0.031035 1.0000 1.0000 1.0000
v -0.017730 -0.088911 0.049241 1.0000 1.0000 1.0000
v -0.009459 -0.088911 0.042444 1.0000 1.0000 1.0000
v -0.022767 -0.088911 0.058657 1.0000 1.0000 1.0000
v 0.000783 -0.088911 0.039334 1.0000 1.0000 1.0000
v 0.011437 -0.088910 0.040375 1.0000 1.0000 1.0000
v -0.023824 -0.088911 0.069312 1.0000 1.0000 1.0000
v -0.020712 -0.088910 0.079583 1.0000 1.0000 1.0000
v 0.017053 0.478204 0.021906 1.0000 1.0000 1.0000
v 0.020900 -0.088911 0.045436 1.0000 1.0000 1.0000
v 0.033134 0.478204 0.030507 1.0000 1.0000 1.0000
v 0.044706 0.478204 0.044600 1.0000 1.0000 1.0000
v 0.027676 -0.088911 0.053689 1.0000 1.0000 1.0000
v 0.049996 0.478204 0.062053 1.0000 1.0000 1.0000
v 0.030789 -0.088911 0.063959 1.0000 1.0000 1.0000
v 0.029746 -0.088910 0.074586 1.0000 1.0000 1.0000
v 0.048215 0.478204 0.080202 1.0000 1.0000 1.0000
v 0.024705 -0.088911 0.084031 1.0000 1.0000 1.0000
v 0.039620 0.478204 0.096287 1.0000 1.0000 1.0000
v -0.037747 0.478204 0.088674 1.0000 1.0000 1.0000
v -0.013912 -0.088911 0.087856 1.0000 1.0000 1.0000
v -0.025736 0.487965 0.102242 1.0000 1.0000 1.0000
v -0.026171 0.478204 0.102772 1.0000 1.0000 1.0000
v -0.010086 0.478204 0.111374 1.0000 1.0000 1.0000
v -0.004494 -0.088911 0.092893 1.0000 1.0000 1.0000
v -0.009887 0.487963 0.110719 1.0000 1.0000 1.0000
v 0.008068 0.478204 0.113155 1.0000 1.0000 1.0000
v 0.006189 -0.088911 0.093941 1.0000 1.0000 1.0000
v 0.016432 -0.088910 0.090827 1.0000 1.0000 1.0000
v -0.008497 0.497232 0.106136 1.0000 1.0000 1.0000
v 0.008001 0.487965 0.112474 1.0000 1.0000 1.0000
v 0.007532 0.497233 0.107709 1.0000 1.0000 1.0000
v 0.025522 0.478204 0.107858 1.0000 1.0000 1.0000
v 0.024705 -0.088911 0.084031 1.0000 1.0000 1.0000
v 0.039620 0.478204 0.096287 1.0000 1.0000 1.0000
v 0.039091 0.487964 0.095853 1.0000 1.0000 1.0000
v 0.025199 0.487964 0.107255 1.0000 1.0000 1.0000
v 0.035391 0.497233 0.092817 1.0000 1.0000 1.0000
v 0.022943 0.497233 0.103033 1.0000 1.0000 1.0000
v 0.031188 0.502577 0.089368 1.0000 1.0000 1.0000
v 0.020379 0.502577 0.098239 1.0000 1.0000 1.0000
v 0.024136 0.507314 0.083579 1.0000 1.0000 1.0000
v 0.016078 0.507301 0.090193 1.0000 1.0000 1.0000
v 0.006998 0.502577 0.102298 1.0000 1.0000 1.0000
v 0.006101 0.507314 0.093218 1.0000 1.0000 1.0000
v -0.001719 0.509432 0.083805 1.0000 1.0000 1.0000
v -0.013459 0.507314 0.087285 1.0000 1.0000 1.0000
v -0.004278 0.507393 0.092224 1.0000 1.0000 1.0000
v 0.006101 0.507314 0.093218 1.0000 1.0000 1.0000
v -0.011546 0.509528 0.074671 1.0000 1.0000 1.0000
v -0.020073 0.507301 0.079226 1.0000 1.0000 1.0000
v -0.023098 0.507314 0.069250 1.0000 1.0000 1.0000
v 0.011522 0.509528 0.081668 1.0000 1.0000 1.0000
v 0.016078 0.507301 0.090193 1.0000 1.0000 1.0000
v 0.024136 0.507314 0.083579 1.0000 1.0000 1.0000
v 0.003486 0.510531 0.066635 1.0000 1.0000 1.0000
v -0.013680 0.509432 0.061429 1.0000 1.0000 1.0000
v -0.022106 0.507393 0.058871 1.0000 1.0000 1.0000
v -0.017165 0.507314 0.049690 1.0000 1.0000 1.0000
v 0.020654 0.509432 0.071842 1.0000 1.0000 1.0000
v 0.029077 0.507394 0.074398 1.0000 1.0000 1.0000
v 0.030069 0.507314 0.064019 1.0000 1.0000 1.0000
v -0.004549 0.509528 0.051603 1.0000 1.0000 1.0000
v -0.009106 0.507301 0.043076 1.0000 1.0000 1.0000
v 0.000870 0.507314 0.040051 1.0000 1.0000 1.0000
v 0.018519 0.509528 0.058599 1.0000 1.0000 1.0000
v 0.027044 0.507301 0.054043 1.0000 1.0000 1.0000
v 0.020430 0.507314 0.045984 1.0000 1.0000 1.0000
v 0.008693 0.509432 0.049466 1.0000 1.0000 1.0000
v 0.011249 0.507393 0.041045 1.0000 1.0000 1.0000
v 0.013985 -0.518718 0.086261 1.0000 1.0000 1.0000
v 0.015824 -0.519375 0.077260 1.0000 1.0000 1.0000
v 0.020705 -0.518814 0.080767 1.0000 1.0000 1.0000
v 0.024789 -0.518715 0.073105 1.0000 1.0000 1.0000
v 0.004750 -0.519375 0.079474 1.0000 1.0000 1.0000
v 0.005669 -0.518681 0.088807 1.0000 1.0000 1.0000
v -0.002984 -0.518726 0.087937 1.0000 1.0000 1.0000
v 0.015591 -0.519376 0.065443 1.0000 1.0000 1.0000
v 0.025661 -0.518665 0.064451 1.0000 1.0000 1.0000
v 0.023112 -0.518706 0.056134 1.0000 1.0000 1.0000
v -0.006543 -0.519375 0.079463 1.0000 1.0000 1.0000
v -0.010645 -0.518814 0.083853 1.0000 1.0000 1.0000
v -0.016141 -0.518706 0.077135 1.0000 1.0000 1.0000
v 0.003486 -0.519376 0.066635 1.0000 1.0000 1.0000
v -0.008619 -0.519376 0.067827 1.0000 1.0000 1.0000
v -0.018689 -0.518665 0.068819 1.0000 1.0000 1.0000
v -0.017818 -0.518715 0.060164 1.0000 1.0000 1.0000
v -0.008853 -0.519375 0.056009 1.0000 1.0000 1.0000
v -0.013734 -0.518814 0.052503 1.0000 1.0000 1.0000
v -0.007014 -0.518718 0.047009 1.0000 1.0000 1.0000
v 0.002221 -0.519375 0.053796 1.0000 1.0000 1.0000
v 0.001302 -0.518681 0.044463 1.0000 1.0000 1.0000
v 0.009955 -0.518726 0.045332 1.0000 1.0000 1.0000
v 0.013514 -0.519375 0.053806 1.0000 1.0000 1.0000
v 0.017616 -0.518814 0.049416 1.0000 1.0000 1.0000
vn 0.4733 -0.0352 0.8802
vn 0.7738 -0.0353 0.6325
vn 0.7738 -0.0354 0.6325
vn 0.7702 -0.0195 0.6375
vn 0.0983 -0.0354 0.9945
vn 0.4735 -0.0196 0.8806
vn 0.0984 -0.0354 0.9945
vn -0.2782 -0.0353 0.9599
vn -0.2854 -0.0352 0.9578
vn 0.0983 -0.0196 0.9950
vn -0.6324 -0.0354 0.7738
vn -0.8784 -0.0354 0.4766
vn -0.2855 -0.0196 0.9582
vn -0.8784 -0.0355 0.4766
vn -0.9944 -0.0356 0.0990
vn -0.6327 -0.0196 0.7742
vn -0.9944 -0.0357 0.0991
vn 0.0983 0.0354 0.9945
vn -0.2854 0.0352 0.9578
vn 0.4733 0.0352 0.8802
vn 0.7699 0.0352 0.6372
vn 0.0978 0.1056 0.9896
vn 0.4649 0.1055 0.8790
vn 0.7699 0.1055 0.6293
vn -0.2789 0.1061 0.9544
vn 0.4591 0.1923 0.8673
vn 0.7574 0.1923 0.6240
vn 0.0980 0.1921 0.9765
vn 0.4489 0.2849 0.8470
vn 0.7392 0.2933 0.6063
vn 0.0981 0.2863 0.9531
vn -0.2795 0.1928 0.9406
vn 0.3806 0.5924 0.7101
vn 0.6275 0.5808 0.5185
vn 0.5372 0.7176 0.4432
vn 0.0825 0.6086 0.7892
vn 0.3322 0.7230 0.6058
vn 0.4327 0.4171 0.7992
vn 0.7006 0.4110 0.5833
vn 0.0740 0.7281 0.6814
vn 0.4823 0.0510 0.8745
vn 0.7697 0.0430 0.6370
vn 0.7225 -0.3476 0.5976
vn 0.0900 0.4186 0.9037
vn 0.4586 -0.3253 0.8270
vn 0.5996 -0.6388 0.4821
vn 0.1059 0.0667 0.9921
vn 0.3818 -0.6416 0.6652
vn 0.2651 -0.9375 0.2256
vn 0.1144 -0.9658 0.2326
vn 0.0276 -0.9662 0.2564
vn 0.0981 -0.3100 0.9457
vn 0.0904 -0.6721 0.7350
vn -0.2005 -0.6565 0.7272
vn -0.0670 -0.9644 0.2559
vn -0.2706 -0.3255 0.9060
vn -0.4760 -0.6412 0.6019
vn -0.2255 -0.9375 0.2651
vn -0.2872 0.0590 0.9560
vn -0.6628 -0.6469 0.3770
vn -0.2179 -0.9701 0.1069
vn -0.2416 -0.9700 0.0277
vn -0.5925 -0.3493 0.7259
vn -0.8245 -0.3274 0.4615
vn -0.7313 -0.6760 0.0909
vn -0.9448 -0.3123 0.0988
vn -0.7235 -0.6602 -0.2016
vn -0.2338 -0.9705 -0.0595
vn -0.9046 -0.3279 -0.2726
vn -0.5968 -0.6443 -0.4783
vn -0.2581 -0.9411 -0.2185
vn -0.9920 0.0672 0.1067
vn -0.3770 -0.6469 -0.6628
vn -0.1068 -0.9684 -0.2254
vn -0.0198 -0.9683 -0.2491
vn -0.7222 -0.3512 -0.5959
vn -0.0831 -0.6764 -0.7318
vn -0.4553 -0.3286 -0.8275
vn -0.0910 -0.3126 -0.9455
vn 0.2092 -0.6592 -0.7223
vn 0.0749 -0.9658 -0.2484
vn 0.2798 -0.3271 -0.9026
vn 0.4843 -0.6418 -0.5946
vn 0.2335 -0.9377 -0.2573
vn -0.0989 0.0673 -0.9928
vn 0.6692 -0.6454 -0.3683
vn 0.2256 -0.9692 -0.0989
vn 0.2491 -0.9683 -0.0198
vn 0.6010 -0.3496 -0.7188
vn 0.7355 -0.6725 -0.0826
vn 0.8300 -0.3265 -0.4523
vn 0.9464 -0.3102 -0.0903
vn 0.7261 -0.6554 0.2080
vn 0.2411 -0.9682 0.0672
vn 0.5997 -0.6388 0.4820
vn 0.2651 -0.9375 0.2255
vn 0.9040 -0.3248 0.2779
vn 0.7226 -0.3476 0.5975
vn 0.9929 0.0667 -0.0981
vn 0.9539 0.0589 0.2944
vn 0.7698 0.0430 0.6368
vn 0.7007 0.4110 0.5831
vn 0.8683 0.4204 0.2632
vn 0.5373 0.7176 0.4431
vn 0.8778 0.0512 -0.4763
vn 0.9043 0.4189 -0.0822
vn 0.6407 0.0432 -0.7665
vn 0.6599 0.7223 0.2069
vn 0.8019 0.4186 -0.4264
vn 0.5864 0.4133 -0.6966
vn 0.2966 0.0593 -0.9532
vn 0.2650 0.4233 -0.8663
vn 0.4450 0.7207 -0.5316
vn 0.6138 0.7232 -0.3166
vn 0.6818 0.7285 -0.0662
vn 0.7897 0.6090 -0.0747
vn 0.5211 0.5916 -0.6151
vn 0.7707 0.5908 0.2387
vn 0.6276 0.5808 0.5184
vn 0.7393 0.2933 0.6062
vn 0.9176 0.2850 0.2772
vn 0.7575 0.1923 0.6239
vn 0.7194 0.5857 -0.3734
vn 0.9385 0.1923 0.2866
vn 0.7700 0.1055 0.6292
vn 0.9538 0.2866 -0.0903
vn 0.8480 0.2931 -0.4416
vn 0.9523 0.1058 0.2861
vn 0.7700 0.0352 0.6370
vn 0.9772 0.1923 -0.0903
vn 0.9549 0.0354 0.2947
vn 0.7704 -0.0195 0.6373
vn 0.9903 0.1057 -0.0900
vn 0.8704 0.1930 -0.4529
vn 0.8822 0.1059 -0.4588
vn 0.9953 0.0354 -0.0905
vn 0.8834 0.0353 -0.4672
vn 0.9560 -0.0195 0.2927
vn 0.9549 -0.0354 0.2947
vn 0.7739 -0.0354 0.6323
vn 0.9556 -0.0351 0.2925
vn 0.9945 -0.0354 -0.0983
vn 0.9945 -0.0353 -0.0984
vn 0.9957 -0.0197 -0.0905
vn 0.8838 -0.0196 -0.4674
vn 0.8834 -0.0353 -0.4673
vn 0.8834 -0.0354 -0.4672
vn 0.6412 -0.0197 -0.7671
vn 0.6362 -0.0356 -0.7707
vn 0.6363 -0.0356 -0.7706
vn 0.2970 -0.0356 -0.9542
vn -0.0990 -0.0357 -0.9944
vn 0.6409 0.0354 -0.7668
vn 0.2949 -0.0196 -0.9553
vn 0.6331 0.1062 -0.7668
vn 0.2969 0.0356 -0.9542
vn 0.2882 0.1067 -0.9516
vn 0.6277 0.1934 -0.7540
vn 0.2888 0.1938 -0.9376
vn 0.6097 0.2950 -0.7356
vn 0.2792 0.2871 -0.9163
vn 0.2401 0.5943 -0.7675
vn -0.0910 0.2887 -0.9531
vn 0.2080 0.7261 -0.6554
vn -0.0672 0.6043 -0.7939
vn -0.0828 0.4219 -0.9029
vn -0.0591 0.7291 -0.6818
vn -0.3670 0.5959 -0.7143
vn -0.3182 0.7267 -0.6088
vn -0.4291 0.4212 -0.7991
vn -0.4456 0.2878 -0.8477
vn -0.6177 0.5941 -0.5154
vn -0.7392 0.2965 -0.6048
vn -0.5335 0.7232 -0.4386
vn -0.7690 0.5954 -0.2327
vn -0.7578 0.1944 -0.6229
vn -0.9183 0.2877 -0.2719
vn -0.4561 0.1943 -0.8685
vn -0.0910 0.1938 -0.9768
vn -0.7706 0.1067 -0.6283
vn -0.0907 0.1065 -0.9902
vn -0.4620 0.1066 -0.8804
vn -0.0912 0.0357 -0.9952
vn -0.4705 0.0356 -0.8817
vn -0.7707 0.0356 -0.6363
vn -0.0912 -0.0198 -0.9956
vn -0.4707 -0.0198 -0.8821
vn -0.0991 -0.0357 -0.9944
vn -0.4706 -0.0356 -0.8817
vn -0.4705 -0.0356 -0.8817
vn -0.7710 -0.0198 -0.6366
vn -0.7706 -0.0356 -0.6363
vn -0.9564 -0.0357 -0.2897
vn -0.9565 -0.0357 -0.2897
vn -0.9575 -0.0197 -0.2877
vn -0.9564 0.0358 -0.2897
vn -0.9538 0.1068 -0.2810
vn -0.9944 0.0357 0.0990
vn -0.9397 0.1942 -0.2815
vn -0.9894 0.1065 0.0985
vn -0.9761 0.1936 0.0988
vn -0.9524 0.2885 0.0988
vn -0.9949 -0.0198 0.0991
vn -0.8788 -0.0197 0.4768
vn -0.8784 0.0355 0.4766
vn -0.6324 0.0354 0.7738
vn -0.8773 0.1062 0.4681
vn -0.6245 0.1061 0.7738
vn -0.8653 0.1936 0.4623
vn -0.6192 0.1932 0.7611
vn -0.8447 0.2868 0.4518
vn -0.2700 0.2856 0.9195
vn -0.6013 0.2947 0.7427
vn -0.2313 0.5919 0.7721
vn -0.1994 0.7235 0.6609
vn -0.5071 0.5936 0.6250
vn -0.2559 0.4213 0.8701
vn -0.4368 0.7201 0.5391
vn -0.7134 0.5873 0.3823
vn -0.5780 0.4129 0.7039
vn -0.6322 0.0432 0.7736
vn -0.8726 0.0513 0.4857
vn -0.7964 0.4198 0.4354
vn -0.6108 0.7211 0.3271
vn -0.9023 0.4216 0.0906
vn -0.7862 0.6124 0.0829
vn -0.6772 0.7320 0.0744
vn -0.6565 0.7272 -0.2005
vn -0.8681 0.4242 -0.2577
vn -0.6999 0.4152 -0.5812
vn -0.9554 0.0594 -0.2894
vn -0.7704 0.0435 -0.6361
vn -0.4796 0.0515 -0.8760
vn 0.4585 0.8033 0.3801
vn 0.3656 0.9238 0.1140
vn 0.2700 0.9348 0.2308
vn 0.5684 0.8036 0.1764
vn 0.6382 0.5599 0.5285
vn 0.5923 0.8041 -0.0510
vn 0.3488 0.9365 -0.0353
vn 0.3328 0.9278 -0.1684
vn 0.7939 0.5593 0.2386
vn 0.8255 0.5595 -0.0743
vn 0.5205 0.8101 -0.2700
vn 0.9216 0.2705 0.2784
vn 0.7442 0.2688 0.6115
vn 0.9606 0.2627 -0.0902
vn 0.7344 0.5616 -0.3810
vn 0.3815 0.8062 -0.4523
vn 0.2313 0.9367 -0.2627
vn 0.1143 0.9264 -0.3588
vn 0.5308 0.5544 -0.6409
vn 0.8536 0.2714 -0.4445
vn 0.1772 0.8072 -0.5631
vn -0.0512 0.8078 -0.5872
vn -0.0354 0.9391 -0.3419
vn -0.1688 0.9302 -0.3259
vn 0.2401 0.5627 -0.7910
vn -0.0748 0.5631 -0.8230
vn -0.2711 0.8133 -0.5148
vn -0.4536 0.8086 -0.3747
vn -0.2631 0.9384 -0.2239
vn -0.3591 0.9272 -0.1065
vn -0.3832 0.5649 -0.7308
vn -0.5549 0.8145 -0.1692
vn -0.6436 0.5568 -0.5252
vn -0.5869 0.8075 0.0591
vn -0.3418 0.9388 0.0432
vn -0.3254 0.9290 0.1764
vn -0.7925 0.5638 -0.2326
vn -0.5136 0.8116 0.2784
vn -0.8225 0.5628 0.0826
vn -0.3734 0.8057 0.4598
vn -0.2234 0.9365 0.2704
vn -0.1062 0.9246 0.3659
vn -0.7286 0.5632 0.3899
vn -0.1688 0.8047 0.5692
vn -0.5225 0.5539 0.6482
vn -0.9593 0.2645 0.0987
vn -0.8485 0.2723 0.4538
vn -0.9224 0.2731 -0.2732
vn -0.9947 -0.0277 0.0991
vn -0.7441 0.2717 -0.6103
vn -0.9567 -0.0278 -0.2898
vn -0.4475 0.2733 -0.8515
vn -0.7708 -0.0276 -0.6364
vn -0.0909 0.2647 -0.9600
vn -0.4706 -0.0277 -0.8819
vn 0.2805 0.2725 -0.9204
vn -0.0912 -0.0278 -0.9954
vn 0.6152 0.2703 -0.7406
vn 0.2970 -0.0277 -0.9545
vn 0.6363 -0.0356 -0.7707
vn 0.6411 -0.0275 -0.7670
vn 0.8836 -0.0275 -0.4674
vn 0.8834 -0.0353 -0.4672
vn 0.9955 -0.0275 -0.0905
vn 0.9945 -0.0355 -0.0983
vn 0.9556 -0.0351 0.2924
vn 0.9552 -0.0275 0.2948
vn 0.7739 -0.0353 0.6323
vn 0.7702 -0.0273 0.6372
vn -0.8786 -0.0276 0.4767
vn -0.6325 -0.0353 0.7738
vn -0.6067 0.2701 0.7476
vn -0.6326 -0.0275 0.7740
vn -0.2876 -0.0276 0.9574
vn -0.2712 0.2712 0.9235
vn 0.0983 -0.0275 0.9948
vn -0.2312 0.5603 0.7954
vn 0.0980 0.2625 0.9599
vn 0.0821 0.5591 0.8250
vn 0.4735 -0.0274 0.8804
vn 0.7701 -0.0273 0.6373
vn 0.7440 0.2688 0.6117
vn 0.4508 0.2705 0.8507
vn 0.6381 0.5599 0.5286
vn 0.3877 0.5600 0.7322
vn 0.4584 0.8033 0.3802
vn 0.2773 0.8083 0.5194
vn 0.2699 0.9348 0.2308
vn 0.1760 0.9266 0.3323
vn 0.0588 0.8038 0.5920
vn 0.0431 0.9362 0.3487
vn -0.0352 0.9910 0.1293
vn -0.2233 0.9365 0.2703
vn -0.1062 0.9246 0.3658
vn 0.0431 0.9363 0.3486
vn -0.1059 0.9921 0.0667
vn -0.3253 0.9290 0.1764
vn -0.3417 0.9388 0.0432
vn 0.0666 0.9913 0.1136
vn 0.1759 0.9266 0.3323
vn 0.2698 0.9349 0.2307
vn 0.0039 1.0000 0.0039
vn -0.1216 0.9920 -0.0353
vn -0.3590 0.9273 -0.1065
vn -0.2630 0.9385 -0.2238
vn 0.1292 0.9907 0.0431
vn 0.3655 0.9238 0.1140
vn 0.3487 0.9366 -0.0353
vn -0.0589 0.9926 -0.1059
vn -0.1687 0.9303 -0.3257
vn -0.0354 0.9391 -0.3417
vn 0.1137 0.9918 -0.0588
vn 0.3327 0.9279 -0.1683
vn 0.2312 0.9368 -0.2625
vn 0.0431 0.9917 -0.1215
vn 0.1143 0.9264 -0.3587
vn 0.1143 -0.9659 0.2325
vn 0.0355 -0.9990 0.0276
vn 0.2649 -0.9375 0.2254
vn 0.2410 -0.9682 0.0672
vn 0.0040 -0.9994 0.0356
vn 0.0276 -0.9662 0.2563
vn -0.0669 -0.9644 0.2558
vn 0.0355 -0.9994 0.0040
vn 0.2489 -0.9683 -0.0197
vn 0.2254 -0.9692 -0.0989
vn -0.0197 -0.9992 0.0355
vn -0.2254 -0.9375 0.2650
vn -0.2177 -0.9702 0.1069
vn 0.0040 -1.0000 0.0040
vn -0.0277 -0.9996 0.0040
vn -0.2414 -0.9700 0.0277
vn -0.2336 -0.9705 -0.0594
vn -0.0276 -0.9994 -0.0197
vn -0.2580 -0.9411 -0.2183
vn -0.1067 -0.9684 -0.2252
vn 0.0040 -0.9996 -0.0277
vn -0.0198 -0.9683 -0.2489
vn 0.0749 -0.9658 -0.2482
vn 0.0276 -0.9992 -0.0276
vn 0.2334 -0.9378 -0.2571
vt 0.959961 0.990555
vt 0.989746 0.548584
vt 0.989746 0.990555
vt 0.959961 0.548584
vt 0.989746 0.274902
vt 0.930176 0.990555
vt 0.959961 0.274902
vt 0.930176 0.548584
vt 0.900391 0.548584
vt 0.900391 0.990555
vt 0.930176 0.274902
vt 0.870117 0.548584
vt 0.870117 0.990555
vt 0.840332 0.990555
vt 0.900391 0.274902
vt 0.840332 0.548584
vt 0.810547 0.990555
vt 0.870117 0.274902
vt 0.810547 0.548584
vt 0.930176 0.229004
vt 0.900391 0.229004
vt 0.959961 0.229004
vt 0.989746 0.229004
vt 0.930176 0.205566
vt 0.959961 0.205566
vt 0.989746 0.205566
vt 0.900391 0.205566
vt 0.959961 0.193848
vt 0.989746 0.193848
vt 0.930176 0.193848
vt 0.959961 0.182129
vt 0.989746 0.182129
vt 0.930176 0.182129
vt 0.900391 0.193848
vt 0.959961 0.166504
vt 0.989746 0.166504
vt 0.989746 0.157227
vt 0.930176 0.166504
vt 0.959961 0.157227
vt 0.959961 0.150879
vt 0.989746 0.150879
vt 0.930176 0.157227
vt 0.959961 0.143066
vt 0.989746 0.143066
vt 0.989746 0.135742
vt 0.930176 0.150879
vt 0.959961 0.135742
vt 0.989746 0.128906
vt 0.930176 0.143066
vt 0.959961 0.128906
vt 0.989746 0.123047
vt 0.959961 0.123047
vt 0.930176 0.123047
vt 0.930176 0.135742
vt 0.930176 0.128906
vt 0.899902 0.128906
vt 0.899902 0.123047
vt 0.899902 0.135742
vt 0.870117 0.128906
vt 0.870117 0.123047
vt 0.899902 0.143066
vt 0.840332 0.128906
vt 0.840332 0.123047
vt 0.810547 0.123047
vt 0.870117 0.135742
vt 0.840332 0.135742
vt 0.810547 0.128906
vt 0.810547 0.135742
vt 0.780762 0.128906
vt 0.780762 0.123047
vt 0.780762 0.135742
vt 0.750977 0.128906
vt 0.750977 0.123047
vt 0.810547 0.143066
vt 0.721191 0.128906
vt 0.721191 0.123047
vt 0.691406 0.123047
vt 0.750977 0.135742
vt 0.691406 0.128906
vt 0.721191 0.135742
vt 0.691406 0.135742
vt 0.661133 0.128906
vt 0.661133 0.123047
vt 0.661133 0.135742
vt 0.631348 0.128906
vt 0.631348 0.123047
vt 0.691406 0.143066
vt 0.601562 0.128906
vt 0.601562 0.123047
vt 0.571777 0.123047
vt 0.631348 0.135742
vt 0.571777 0.128906
vt 0.601562 0.135742
vt 0.571777 0.135742
vt 0.541992 0.128906
vt 0.541992 0.123047
vt 0.512207 0.128906
vt 0.512207 0.123047
vt 0.541992 0.135742
vt 0.512207 0.135742
vt 0.571777 0.143066
vt 0.541992 0.143066
vt 0.512207 0.143066
vt 0.512207 0.150879
vt 0.541992 0.150879
vt 0.512207 0.157227
vt 0.601562 0.143066
vt 0.571777 0.150879
vt 0.631348 0.143066
vt 0.541992 0.157227
vt 0.601562 0.150879
vt 0.631348 0.150879
vt 0.661133 0.143066
vt 0.661133 0.150879
vt 0.631348 0.157227
vt 0.601562 0.157227
vt 0.571777 0.157227
vt 0.571777 0.166504
vt 0.631348 0.166504
vt 0.541992 0.166504
vt 0.512207 0.166504
vt 0.512207 0.182129
vt 0.541992 0.182129
vt 0.512207 0.193848
vt 0.601562 0.166504
vt 0.541992 0.193848
vt 0.512207 0.205566
vt 0.571777 0.182129
vt 0.601562 0.182129
vt 0.541992 0.205566
vt 0.512207 0.229004
vt 0.571777 0.193848
vt 0.541992 0.229004
vt 0.512207 0.274902
vt 0.571777 0.205566
vt 0.601562 0.193848
vt 0.601562 0.205566
vt 0.571777 0.229004
vt 0.601562 0.229004
vt 0.541992 0.274902
vt 0.541992 0.548584
vt 0.512207 0.548584
vt 0.512207 0.990555
vt 0.541992 0.990555
vt 0.571777 0.990555
vt 0.571777 0.548584
vt 0.571777 0.274902
vt 0.601562 0.274902
vt 0.601562 0.548584
vt 0.601562 0.990555
vt 0.631348 0.274902
vt 0.631348 0.548584
vt 0.631348 0.990555
vt 0.661621 0.990555
vt 0.661621 0.548584
vt 0.691406 0.990555
vt 0.631348 0.229004
vt 0.661621 0.274902
vt 0.631348 0.205566
vt 0.661621 0.229004
vt 0.661621 0.205566
vt 0.631348 0.193848
vt 0.661621 0.193848
vt 0.631348 0.182129
vt 0.661621 0.182129
vt 0.661621 0.166504
vt 0.691406 0.182129
vt 0.661133 0.157227
vt 0.691406 0.166504
vt 0.691406 0.150879
vt 0.691406 0.157227
vt 0.721191 0.166504
vt 0.721191 0.157227
vt 0.721191 0.150879
vt 0.721191 0.182129
vt 0.750977 0.166504
vt 0.750977 0.182129
vt 0.750977 0.157227
vt 0.780762 0.166504
vt 0.750977 0.193848
vt 0.780762 0.182129
vt 0.721191 0.193848
vt 0.691406 0.193848
vt 0.750977 0.205566
vt 0.691406 0.205566
vt 0.721191 0.205566
vt 0.691406 0.229004
vt 0.721191 0.229004
vt 0.750977 0.229004
vt 0.691406 0.274902
vt 0.721191 0.274902
vt 0.691406 0.548584
vt 0.721191 0.548584
vt 0.721191 0.990555
vt 0.750977 0.274902
vt 0.750977 0.548584
vt 0.750977 0.990555
vt 0.780762 0.990555
vt 0.780762 0.548584
vt 0.780762 0.274902
vt 0.780762 0.229004
vt 0.780762 0.205566
vt 0.810547 0.229004
vt 0.780762 0.193848
vt 0.810547 0.205566
vt 0.810547 0.193848
vt 0.810547 0.182129
vt 0.810547 0.274902
vt 0.840332 0.274902
vt 0.840332 0.229004
vt 0.870117 0.229004
vt 0.840332 0.205566
vt 0.870117 0.205566
vt 0.840332 0.193848
vt 0.870117 0.193848
vt 0.840332 0.182129
vt 0.900391 0.182129
vt 0.870117 0.182129
vt 0.900391 0.166504
vt 0.899902 0.157227
vt 0.870117 0.166504
vt 0.899902 0.150879
vt 0.870117 0.157227
vt 0.840332 0.166504
vt 0.870117 0.150879
vt 0.870117 0.143066
vt 0.840332 0.143066
vt 0.840332 0.150879
vt 0.840332 0.157227
vt 0.810547 0.150879
vt 0.810547 0.166504
vt 0.810547 0.157227
vt 0.780762 0.157227
vt 0.780762 0.150879
vt 0.750977 0.150879
vt 0.780762 0.143066
vt 0.750977 0.143066
vt 0.721191 0.143066
vt 0.013763 0.973862
vt 0.043549 0.990524
vt 0.013763 0.990524
vt 0.043549 0.973862
vt 0.013763 0.961517
vt 0.073303 0.973862
vt 0.073303 0.990524
vt 0.103088 0.990524
vt 0.043549 0.961517
vt 0.073303 0.961517
vt 0.103088 0.973862
vt 0.043549 0.944580
vt 0.013763 0.944580
vt 0.073303 0.944580
vt 0.103088 0.961517
vt 0.132935 0.973862
vt 0.132935 0.990524
vt 0.162720 0.990524
vt 0.132935 0.961517
vt 0.103088 0.944580
vt 0.162720 0.973862
vt 0.192505 0.973862
vt 0.192505 0.990524
vt 0.222290 0.990524
vt 0.162720 0.961517
vt 0.192505 0.961517
vt 0.222290 0.973862
vt 0.251953 0.973862
vt 0.251953 0.990524
vt 0.281738 0.990524
vt 0.222290 0.961517
vt 0.281738 0.973862
vt 0.251953 0.961517
vt 0.311523 0.973862
vt 0.311523 0.990524
vt 0.341309 0.990524
vt 0.281738 0.961517
vt 0.341309 0.973862
vt 0.311523 0.961517
vt 0.371094 0.973862
vt 0.371094 0.990524
vt 0.400879 0.990524
vt 0.341309 0.961517
vt 0.400879 0.973862
vt 0.371094 0.961517
vt 0.311523 0.944580
vt 0.341309 0.944580
vt 0.281738 0.944580
vt 0.311523 0.928711
vt 0.251953 0.944580
vt 0.281738 0.928711
vt 0.222290 0.944580
vt 0.251953 0.928711
vt 0.192505 0.944580
vt 0.222290 0.928711
vt 0.162720 0.944580
vt 0.192505 0.928711
vt 0.132935 0.944580
vt 0.251953 0.008789
vt 0.222290 0.008789
vt 0.281738 0.008789
vt 0.192505 0.008789
vt 0.162720 0.008789
vt 0.311523 0.008789
vt 0.341309 0.008789
vt 0.162720 0.928711
vt 0.132935 0.008789
vt 0.132935 0.928711
vt 0.103088 0.928711
vt 0.103088 0.008789
vt 0.073303 0.928711
vt 0.073303 0.008789
vt 0.043549 0.008789
vt 0.043549 0.928711
vt 0.013763 0.008789
vt 0.013763 0.928711
vt 0.341309 0.928711
vt 0.371094 0.008789
vt 0.371094 0.944580
vt 0.371094 0.928711
vt 0.400879 0.928711
vt 0.400879 0.008789
vt 0.400879 0.944580
vt 0.430664 0.928711
vt 0.430664 0.008789
vt 0.460449 0.008789
vt 0.400879 0.961517
vt 0.430664 0.944580
vt 0.430664 0.961517
vt 0.460449 0.928711
vt 0.490234 0.008789
vt 0.490234 0.928711
vt 0.490234 0.944580
vt 0.460449 0.944580
vt 0.490234 0.961487
vt 0.460449 0.961517
vt 0.490234 0.973862
vt 0.460449 0.973862
vt 0.490234 0.990524
vt 0.460449 0.990524
vt 0.430664 0.973862
vt 0.430664 0.990524
vt 0.537109 0.084961
vt 0.541504 0.109863
vt 0.523926 0.098145
vt 0.512207 0.080566
vt 0.562500 0.093750
vt 0.562500 0.113770
vt 0.583496 0.109863
vt 0.527832 0.059570
vt 0.507812 0.059570
vt 0.511719 0.038574
vt 0.562500 0.059082
vt 0.588379 0.084961
vt 0.601074 0.097656
vt 0.613281 0.080078
vt 0.536621 0.033691
vt 0.523438 0.020508
vt 0.541504 0.008789
vt 0.597168 0.059082
vt 0.617188 0.059082
vt 0.612793 0.038086
vt 0.562500 0.024902
vt 0.562500 0.004395
vt 0.583008 0.008789
vt 0.587891 0.033691
vt 0.601074 0.020508
vt 0.728027 0.040039
vt 0.707031 0.033203
vt 0.716797 0.022461
vt 0.699219 0.010742
vt 0.709473 0.060059
vt 0.732422 0.060547
vt 0.728027 0.081055
vt 0.678711 0.030762
vt 0.678711 0.006348
vt 0.658203 0.010254
vt 0.706543 0.087402
vt 0.716309 0.098145
vt 0.698730 0.109863
vt 0.678711 0.060059
vt 0.678223 0.089355
vt 0.678223 0.113770
vt 0.657715 0.109375
vt 0.649902 0.086914
vt 0.640137 0.097656
vt 0.628906 0.080078
vt 0.647461 0.059570
vt 0.625000 0.059570
vt 0.628906 0.039062
vt 0.650391 0.032715
vt 0.640625 0.021973
s 1
usemtl MI_Pickaxe_ChorusPunt_41ef7040
f 1/1/1 2/2/2 3/3/3
f 2/2/2 1/1/1 4/4/1
f 4/4/1 5/5/4 2/2/2
f 6/6/5 4/4/1 1/1/1
f 5/5/4 4/4/1 7/7/6
f 4/4/1 6/6/5 8/8/7
f 8/8/7 7/7/6 4/4/1
f 6/6/5 9/9/8 8/8/7
f 10/10/9 9/9/8 6/6/5
f 7/7/6 8/8/7 11/11/10
f 12/12/11 9/9/8 10/10/9
f 13/13/11 12/12/11 10/10/9
f 14/14/12 12/12/11 13/13/11
f 9/9/8 15/15/13 8/8/7
f 8/8/7 15/15/13 11/11/10
f 12/12/11 14/14/12 16/16/14
f 17/17/15 16/16/14 14/14/12
f 12/12/11 18/18/16 9/9/8
f 16/16/14 18/18/16 12/12/11
f 9/9/8 18/18/16 15/15/13
f 16/16/14 17/17/15 19/19/17
f 15/15/13 20/20/18 11/11/10
f 20/20/18 7/7/6 11/11/10
f 20/20/18 15/15/13 21/21/19
f 18/18/16 21/21/19 15/15/13
f 7/7/6 20/20/18 22/22/20
f 22/22/20 5/5/4 7/7/6
f 5/5/4 22/22/20 23/23/21
f 24/24/22 22/22/20 20/20/18
f 21/21/19 24/24/22 20/20/18
f 25/25/23 23/23/21 22/22/20
f 22/22/20 24/24/22 25/25/23
f 23/23/21 25/25/23 26/26/24
f 24/24/22 21/21/19 27/27/25
f 28/28/26 26/26/24 25/25/23
f 26/26/24 28/28/26 29/29/27
f 30/30/28 25/25/23 24/24/22
f 25/25/23 30/30/28 28/28/26
f 27/27/25 30/30/28 24/24/22
f 31/31/29 29/29/27 28/28/26
f 29/29/27 31/31/29 32/32/30
f 33/33/31 28/28/26 30/30/28
f 28/28/26 33/33/31 31/31/29
f 30/30/28 27/27/25 34/34/32
f 34/34/32 33/33/31 30/30/28
f 35/35/33 32/32/30 31/31/29
f 32/32/30 35/35/33 36/36/34
f 35/35/33 37/37/35 36/36/34
f 38/38/36 31/31/29 33/33/31
f 31/31/29 38/38/36 35/35/33
f 37/37/35 35/35/33 39/39/37
f 38/38/36 39/39/37 35/35/33
f 40/40/38 37/37/35 39/39/37
f 40/40/38 41/41/39 37/37/35
f 39/39/37 38/38/36 42/42/40
f 41/41/39 40/40/38 43/43/41
f 43/43/41 44/44/42 41/41/39
f 43/43/41 45/45/43 44/44/42
f 39/39/37 46/46/44 40/40/38
f 39/39/37 42/42/40 46/46/44
f 45/45/43 43/43/41 47/47/45
f 47/47/45 48/48/46 45/45/43
f 40/40/38 49/49/47 43/43/41
f 49/49/47 47/47/45 43/43/41
f 40/40/38 46/46/44 49/49/47
f 48/48/46 47/47/45 50/50/48
f 50/50/48 51/51/49 48/48/46
f 51/51/49 50/50/48 52/52/50
f 50/50/48 53/53/51 52/52/50
f 54/54/52 50/50/48 47/47/45
f 47/47/45 49/49/47 54/54/52
f 50/50/48 55/55/53 53/53/51
f 50/50/48 54/54/52 55/55/53
f 56/56/54 53/53/51 55/55/53
f 54/54/52 56/56/54 55/55/53
f 53/53/51 56/56/54 57/57/55
f 54/54/52 58/58/56 56/56/54
f 49/49/47 58/58/56 54/54/52
f 59/59/57 57/57/55 56/56/54
f 58/58/56 59/59/57 56/56/54
f 57/57/55 59/59/57 60/60/58
f 49/49/47 61/61/59 58/58/56
f 62/62/60 60/60/58 59/59/57
f 60/60/58 62/62/60 63/63/61
f 64/64/62 63/63/61 62/62/60
f 65/65/63 59/59/57 58/58/56
f 61/61/59 65/65/63 58/58/56
f 59/59/57 66/66/64 62/62/60
f 66/66/64 59/59/57 65/65/63
f 62/62/60 67/67/65 64/64/62
f 68/68/66 62/62/60 66/66/64
f 62/62/60 68/68/66 67/67/65
f 69/69/67 64/64/62 67/67/65
f 68/68/66 69/69/67 67/67/65
f 64/64/62 69/69/67 70/70/68
f 68/68/66 71/71/69 69/69/67
f 72/72/70 70/70/68 69/69/67
f 71/71/69 72/72/70 69/69/67
f 70/70/68 72/72/70 73/73/71
f 74/74/72 71/71/69 68/68/66
f 66/66/64 74/74/72 68/68/66
f 75/75/73 73/73/71 72/72/70
f 73/73/71 75/75/73 76/76/74
f 75/75/73 77/77/75 76/76/74
f 78/78/76 72/72/70 71/71/69
f 77/77/75 75/75/73 79/79/77
f 72/72/70 80/80/78 75/75/73
f 80/80/78 72/72/70 78/78/76
f 75/75/73 81/81/79 79/79/77
f 81/81/79 75/75/73 80/80/78
f 82/82/80 77/77/75 79/79/77
f 81/81/79 82/82/80 79/79/77
f 77/77/75 82/82/80 83/83/81
f 81/81/79 84/84/82 82/82/80
f 85/85/83 83/83/81 82/82/80
f 84/84/82 85/85/83 82/82/80
f 83/83/81 85/85/83 86/86/84
f 87/87/85 84/84/82 81/81/79
f 80/80/78 87/87/85 81/81/79
f 88/88/86 86/86/84 85/85/83
f 86/86/84 88/88/86 89/89/87
f 88/88/86 90/90/88 89/89/87
f 91/91/89 85/85/83 84/84/82
f 90/90/88 88/88/86 92/92/90
f 85/85/83 93/93/91 88/88/86
f 93/93/91 85/85/83 91/91/89
f 88/88/86 94/94/92 92/92/90
f 94/94/92 88/88/86 93/93/91
f 95/95/93 90/90/88 92/92/90
f 94/94/92 95/95/93 92/92/90
f 90/90/88 95/95/93 96/96/94
f 96/96/94 97/97/95 98/98/96
f 97/97/95 96/96/94 95/95/93
f 99/99/97 97/97/95 95/95/93
f 94/94/92 99/99/97 95/95/93
f 100/100/98 97/97/95 99/99/97
f 101/101/99 99/99/97 94/94/92
f 93/93/91 101/101/99 94/94/92
f 102/102/100 100/100/98 99/99/97
f 101/101/99 102/102/100 99/99/97
f 102/102/100 103/103/101 100/100/98
f 102/102/100 104/104/102 103/103/101
f 104/104/102 102/102/100 105/105/103
f 101/101/99 105/105/103 102/102/100
f 105/105/103 106/106/104 104/104/102
f 101/101/99 93/93/91 107/107/105
f 91/91/89 107/107/105 93/93/91
f 105/105/103 101/101/99 108/108/106
f 107/107/105 91/91/89 109/109/107
f 106/106/104 105/105/103 110/110/108
f 108/108/106 110/110/108 105/105/103
f 111/111/109 101/101/99 107/107/105
f 111/111/109 108/108/106 101/101/99
f 107/107/105 109/109/107 112/112/110
f 112/112/110 111/111/109 107/107/105
f 113/113/111 109/109/107 91/91/89
f 113/113/111 112/112/110 109/109/107
f 113/113/111 91/91/89 84/84/82
f 87/87/85 113/113/111 84/84/82
f 112/112/110 113/113/111 114/114/112
f 87/87/85 114/114/112 113/113/111
f 115/115/113 111/111/109 112/112/110
f 114/114/112 115/115/113 112/112/110
f 116/116/114 108/108/106 111/111/109
f 111/111/109 115/115/113 116/116/114
f 116/116/114 117/117/115 108/108/106
f 110/110/108 108/108/106 117/117/115
f 116/116/114 118/118/116 117/117/115
f 118/118/116 110/110/108 117/117/115
f 116/116/114 115/115/113 119/119/117
f 110/110/108 118/118/116 120/120/118
f 120/120/118 106/106/104 110/110/108
f 106/106/104 120/120/118 121/121/119
f 120/120/118 122/122/120 121/121/119
f 122/122/120 120/120/118 123/123/121
f 118/118/116 123/123/121 120/120/118
f 123/123/121 124/124/122 122/122/120
f 118/118/116 116/116/114 125/125/123
f 119/119/117 125/125/123 116/116/114
f 124/124/122 123/123/121 126/126/124
f 126/126/124 127/127/125 124/124/122
f 123/123/121 118/118/116 128/128/126
f 128/128/126 126/126/124 123/123/121
f 129/129/127 118/118/116 125/125/123
f 118/118/116 129/129/127 128/128/126
f 127/127/125 126/126/124 130/130/128
f 130/130/128 131/131/129 127/127/125
f 126/126/124 128/128/126 132/132/130
f 132/132/130 130/130/128 126/126/124
f 131/131/129 130/130/128 133/133/131
f 133/133/131 134/134/132 131/131/129
f 130/130/128 132/132/130 135/135/133
f 135/135/133 133/133/131 130/130/128
f 128/128/126 136/136/134 132/132/130
f 136/136/134 128/128/126 129/129/127
f 132/132/130 137/137/135 135/135/133
f 137/137/135 132/132/130 136/136/134
f 133/133/131 135/135/133 138/138/136
f 139/139/137 135/135/133 137/137/135
f 135/135/133 139/139/137 138/138/136
f 134/134/132 133/133/131 140/140/138
f 138/138/136 140/140/138 133/133/131
f 141/141/139 134/134/132 140/140/138
f 142/142/140 134/134/132 141/141/139
f 143/143/140 142/142/140 144/144/141
f 142/142/140 141/141/139 144/144/141
f 144/144/141 141/141/139 145/145/142
f 141/141/139 140/140/138 146/146/143
f 145/145/142 141/141/139 146/146/143
f 140/140/138 138/138/136 147/147/144
f 146/146/143 140/140/138 147/147/144
f 138/138/136 148/148/145 147/147/144
f 148/148/145 146/146/143 147/147/144
f 148/148/145 138/138/136 139/139/137
f 149/149/146 145/145/142 146/146/143
f 146/146/143 148/148/145 149/149/146
f 145/145/142 149/149/146 150/150/147
f 139/139/137 151/151/148 148/148/145
f 151/151/148 149/149/146 148/148/145
f 152/152/149 150/150/147 149/149/146
f 149/149/146 151/151/148 152/152/149
f 150/150/147 152/152/149 153/153/150
f 153/153/150 152/152/149 154/154/151
f 152/152/149 155/155/151 154/154/151
f 152/152/149 151/151/148 155/155/151
f 154/154/151 155/155/151 156/156/152
f 151/151/148 139/139/137 157/157/153
f 137/137/135 157/157/153 139/139/137
f 155/155/151 151/151/148 158/158/154
f 157/157/153 137/137/135 159/159/155
f 136/136/134 159/159/155 137/137/135
f 160/160/156 151/151/148 157/157/153
f 151/151/148 160/160/156 158/158/154
f 161/161/157 157/157/153 159/159/155
f 157/157/153 161/161/157 160/160/156
f 159/159/155 136/136/134 162/162/158
f 129/129/127 162/162/158 136/136/134
f 159/159/155 163/163/159 161/161/157
f 163/163/159 159/159/155 162/162/158
f 162/162/158 129/129/127 164/164/160
f 125/125/123 164/164/160 129/129/127
f 164/164/160 125/125/123 119/119/117
f 165/165/161 162/162/158 164/164/160
f 162/162/158 165/165/161 163/163/159
f 166/166/162 164/164/160 119/119/117
f 164/164/160 166/166/162 165/165/161
f 119/119/117 115/115/113 166/166/162
f 167/167/163 163/163/159 165/165/161
f 115/115/113 168/168/164 166/166/162
f 115/115/113 114/114/112 168/168/164
f 169/169/165 165/165/161 166/166/162
f 168/168/164 169/169/165 166/166/162
f 165/165/161 169/169/165 167/167/163
f 170/170/166 168/168/164 114/114/112
f 114/114/112 87/87/85 170/170/166
f 169/169/165 168/168/164 171/171/167
f 168/168/164 170/170/166 171/171/167
f 171/171/167 172/172/168 169/169/165
f 173/173/169 171/171/167 170/170/166
f 172/172/168 171/171/167 173/173/169
f 174/174/170 170/170/166 87/87/85
f 173/173/169 170/170/166 174/174/170
f 175/175/171 169/169/165 172/172/168
f 169/169/165 175/175/171 167/167/163
f 173/173/169 176/176/172 172/172/168
f 172/172/168 177/177/173 175/175/171
f 177/177/173 172/172/168 176/176/172
f 176/176/172 173/173/169 178/178/174
f 178/178/174 173/173/169 174/174/170
f 179/179/175 177/177/173 176/176/172
f 178/178/174 179/179/175 176/176/172
f 180/180/176 175/175/171 177/177/173
f 177/177/173 179/179/175 181/181/177
f 181/181/177 180/180/176 177/177/173
f 182/182/178 167/167/163 175/175/171
f 175/175/171 180/180/176 182/182/178
f 167/167/163 182/182/178 183/183/179
f 163/163/159 167/167/163 183/183/179
f 183/183/179 161/161/157 163/163/159
f 184/184/180 182/182/178 180/180/176
f 161/161/157 183/183/179 185/185/181
f 185/185/181 160/160/156 161/161/157
f 186/186/182 183/183/179 182/182/178
f 183/183/179 186/186/182 185/185/181
f 182/182/178 184/184/180 186/186/182
f 160/160/156 185/185/181 187/187/183
f 187/187/183 158/158/154 160/160/156
f 188/188/184 185/185/181 186/186/182
f 185/185/181 188/188/184 187/187/183
f 189/189/185 186/186/182 184/184/180
f 186/186/182 189/189/185 188/188/184
f 158/158/154 187/187/183 190/190/186
f 191/191/187 187/187/183 188/188/184
f 187/187/183 191/191/187 190/190/186
f 192/192/188 158/158/154 190/190/186
f 191/191/187 192/192/188 190/190/186
f 155/155/151 158/158/154 192/192/188
f 156/156/152 155/155/151 192/192/188
f 193/193/189 156/156/152 192/192/188
f 192/192/188 191/191/187 193/193/189
f 156/156/152 193/193/189 194/194/190
f 188/188/184 195/195/191 191/191/187
f 195/195/191 193/193/189 191/191/187
f 195/195/191 188/188/184 189/189/185
f 196/196/192 194/194/190 193/193/189
f 193/193/189 195/195/191 196/196/192
f 194/194/190 196/196/192 197/197/192
f 197/197/192 196/196/192 198/198/193
f 196/196/192 199/199/194 198/198/193
f 196/196/192 195/195/191 199/199/194
f 198/198/193 199/199/194 17/17/15
f 17/17/15 199/199/194 19/19/17
f 199/199/194 195/195/191 200/200/195
f 199/199/194 200/200/195 19/19/17
f 201/201/196 195/195/191 189/189/185
f 195/195/191 201/201/196 200/200/195
f 189/189/185 202/202/197 201/201/196
f 202/202/197 189/189/185 184/184/180
f 203/203/198 200/200/195 201/201/196
f 184/184/180 204/204/199 202/202/197
f 204/204/199 184/184/180 180/180/176
f 180/180/176 181/181/177 204/204/199
f 205/205/200 201/201/196 202/202/197
f 201/201/196 205/205/200 203/203/198
f 206/206/201 202/202/197 204/204/199
f 202/202/197 206/206/201 205/205/200
f 207/207/202 204/204/199 181/181/177
f 204/204/199 207/207/202 206/206/201
f 200/200/195 203/203/198 208/208/203
f 19/19/17 200/200/195 208/208/203
f 209/209/204 19/19/17 208/208/203
f 203/203/198 209/209/204 208/208/203
f 19/19/17 209/209/204 16/16/14
f 18/18/16 16/16/14 209/209/204
f 209/209/204 203/203/198 210/210/205
f 210/210/205 18/18/16 209/209/204
f 205/205/200 210/210/205 203/203/198
f 18/18/16 210/210/205 211/211/206
f 21/21/19 18/18/16 211/211/206
f 211/211/206 27/27/25 21/21/19
f 210/210/205 205/205/200 212/212/207
f 212/212/207 211/211/206 210/210/205
f 206/206/201 212/212/207 205/205/200
f 27/27/25 211/211/206 213/213/208
f 211/211/206 212/212/207 213/213/208
f 213/213/208 34/34/32 27/27/25
f 212/212/207 206/206/201 214/214/209
f 214/214/209 213/213/208 212/212/207
f 207/207/202 214/214/209 206/206/201
f 34/34/32 213/213/208 215/215/210
f 213/213/208 214/214/209 215/215/210
f 214/214/209 207/207/202 216/216/211
f 216/216/211 215/215/210 214/214/209
f 215/215/210 217/217/212 34/34/32
f 33/33/31 34/34/32 217/217/212
f 217/217/212 38/38/36 33/33/31
f 217/217/212 215/215/210 218/218/213
f 215/215/210 216/216/211 218/218/213
f 38/38/36 217/217/212 219/219/214
f 218/218/213 219/219/214 217/217/212
f 220/220/215 38/38/36 219/219/214
f 38/38/36 220/220/215 42/42/40
f 220/220/215 46/46/44 42/42/40
f 219/219/214 218/218/213 221/221/216
f 46/46/44 220/220/215 222/222/217
f 222/222/217 49/49/47 46/46/44
f 219/219/214 223/223/218 220/220/215
f 223/223/218 222/222/217 220/220/215
f 223/223/218 219/219/214 221/221/216
f 49/49/47 222/222/217 61/61/59
f 218/218/213 224/224/219 221/221/216
f 224/224/219 218/218/213 216/216/211
f 225/225/220 61/61/59 222/222/217
f 222/222/217 223/223/218 225/225/220
f 61/61/59 225/225/220 226/226/221
f 61/61/59 226/226/221 65/65/63
f 227/227/222 65/65/63 226/226/221
f 227/227/222 226/226/221 225/225/220
f 65/65/63 227/227/222 66/66/64
f 74/74/72 66/66/64 227/227/222
f 225/225/220 228/228/223 227/227/222
f 228/228/223 74/74/72 227/227/222
f 228/228/223 225/225/220 223/223/218
f 221/221/216 229/229/224 223/223/218
f 228/228/223 223/223/218 229/229/224
f 229/229/224 221/221/216 224/224/219
f 228/228/223 230/230/225 74/74/72
f 229/229/224 230/230/225 228/228/223
f 231/231/226 229/229/224 224/224/219
f 216/216/211 231/231/226 224/224/219
f 231/231/226 216/216/211 207/207/202
f 181/181/177 231/231/226 207/207/202
f 231/231/226 181/181/177 179/179/175
f 229/229/224 231/231/226 232/232/227
f 229/229/224 232/232/227 230/230/225
f 231/231/226 179/179/175 233/233/228
f 233/233/228 232/232/227 231/231/226
f 233/233/228 230/230/225 232/232/227
f 178/178/174 233/233/228 179/179/175
f 230/230/225 233/233/228 234/234/229
f 178/178/174 234/234/229 233/233/228
f 234/234/229 74/74/72 230/230/225
f 234/234/229 178/178/174 235/235/230
f 174/174/170 235/235/230 178/178/174
f 74/74/72 234/234/229 236/236/231
f 235/235/230 236/236/231 234/234/229
f 74/74/72 236/236/231 71/71/69
f 236/236/231 78/78/76 71/71/69
f 236/236/231 235/235/230 237/237/232
f 236/236/231 237/237/232 78/78/76
f 235/235/230 174/174/170 238/238/233
f 238/238/233 237/237/232 235/235/230
f 238/238/233 78/78/76 237/237/232
f 174/174/170 87/87/85 238/238/233
f 78/78/76 238/238/233 80/80/78
f 87/87/85 80/80/78 238/238/233
f 239/239/234 240/240/235 241/241/236
f 240/240/235 239/239/234 242/242/237
f 243/243/238 242/242/237 239/239/234
f 244/244/239 240/240/235 242/242/237
f 240/240/235 244/244/239 245/245/240
f 244/244/239 246/246/241 245/245/240
f 242/242/237 243/243/238 247/247/242
f 242/242/237 248/248/243 244/244/239
f 248/248/243 242/242/237 247/247/242
f 246/246/241 244/244/239 249/249/244
f 248/248/243 249/249/244 244/244/239
f 243/243/238 250/250/245 247/247/242
f 250/250/245 243/243/238 251/251/246
f 247/247/242 252/252/247 248/248/243
f 252/252/247 247/247/242 250/250/245
f 249/249/244 248/248/243 253/253/248
f 253/253/248 248/248/243 252/252/247
f 254/254/249 246/246/241 249/249/244
f 246/246/241 254/254/249 255/255/250
f 254/254/249 256/256/251 255/255/250
f 257/257/252 249/249/244 253/253/248
f 249/249/244 257/257/252 254/254/249
f 252/252/247 258/258/253 253/253/248
f 257/257/252 253/253/248 258/258/253
f 256/256/251 254/254/249 259/259/254
f 257/257/252 259/259/254 254/254/249
f 259/259/254 260/260/255 256/256/251
f 260/260/255 261/261/256 256/256/251
f 260/260/255 262/262/257 261/261/256
f 259/259/254 257/257/252 263/263/258
f 260/260/255 259/259/254 264/264/259
f 263/263/258 264/264/259 259/259/254
f 262/262/257 260/260/255 265/265/260
f 264/264/259 265/265/260 260/260/255
f 266/266/261 262/262/257 265/265/260
f 262/262/257 266/266/261 267/267/262
f 266/266/261 268/268/263 267/267/262
f 265/265/260 264/264/259 269/269/264
f 268/268/263 266/266/261 270/270/265
f 265/265/260 271/271/266 266/266/261
f 271/271/266 270/270/265 266/266/261
f 271/271/266 265/265/260 269/269/264
f 268/268/263 270/270/265 272/272/267
f 268/268/263 272/272/267 273/273/268
f 272/272/267 274/274/269 273/273/268
f 270/270/265 271/271/266 275/275/270
f 275/275/270 272/272/267 270/270/265
f 274/274/269 272/272/267 276/276/271
f 272/272/267 275/275/270 277/277/272
f 277/277/272 276/276/271 272/272/267
f 276/276/271 278/278/273 274/274/269
f 279/279/274 274/274/269 278/278/273
f 278/278/273 280/280/275 279/279/274
f 276/276/271 277/277/272 281/281/276
f 280/280/275 278/278/273 282/282/277
f 278/278/273 276/276/271 283/283/278
f 281/281/276 283/283/278 276/276/271
f 283/283/278 282/282/277 278/278/273
f 281/281/276 277/277/272 284/284/279
f 275/275/270 284/284/279 277/277/272
f 283/283/278 281/281/276 285/285/280
f 284/284/279 285/285/280 281/281/276
f 284/284/279 275/275/270 286/286/281
f 271/271/266 286/286/281 275/275/270
f 285/285/280 284/284/279 287/287/282
f 286/286/281 287/287/282 284/284/279
f 286/286/281 271/271/266 288/288/283
f 287/287/282 286/286/281 289/289/284
f 288/288/283 289/289/284 286/286/281
f 290/290/285 288/288/283 271/271/266
f 271/271/266 269/269/264 290/290/285
f 289/289/284 288/288/283 291/291/286
f 292/292/287 290/290/285 269/269/264
f 269/269/264 264/264/259 292/292/287
f 263/263/258 292/292/287 264/264/259
f 288/288/283 290/290/285 293/293/288
f 288/288/283 293/293/288 291/291/286
f 292/292/287 263/263/258 294/294/289
f 257/257/252 294/294/289 263/263/258
f 290/290/285 292/292/287 295/295/290
f 294/294/289 295/295/290 292/292/287
f 290/290/285 295/295/290 293/293/288
f 294/294/289 257/257/252 296/296/291
f 258/258/253 296/296/291 257/257/252
f 293/293/288 297/297/192 291/291/286
f 291/291/286 297/297/192 289/289/284
f 297/297/192 293/293/288 298/298/190
f 295/295/290 298/298/190 293/293/288
f 297/297/192 299/299/193 289/289/284
f 298/298/190 295/295/290 300/300/188
f 289/289/284 299/299/193 287/287/282
f 295/295/290 301/301/151 300/300/188
f 287/287/282 299/299/193 302/302/15
f 303/303/12 287/287/282 302/302/15
f 304/304/292 301/301/151 295/295/290
f 295/295/290 294/294/289 304/304/292
f 296/296/291 304/304/292 294/294/289
f 305/305/293 301/301/151 304/304/292
f 304/304/292 296/296/291 306/306/294
f 306/306/294 305/305/293 304/304/292
f 296/296/291 307/307/295 306/306/294
f 307/307/295 305/305/293 306/306/294
f 296/296/291 258/258/253 307/307/295
f 305/305/293 307/307/295 308/308/296
f 258/258/253 309/309/297 307/307/295
f 309/309/297 308/308/296 307/307/295
f 258/258/253 252/252/247 309/309/297
f 308/308/296 309/309/297 310/310/298
f 250/250/245 309/309/297 252/252/247
f 309/309/297 311/311/299 310/310/298
f 309/309/297 250/250/245 312/312/300
f 312/312/300 311/311/299 309/309/297
f 251/251/246 312/312/300 250/250/245
f 313/313/301 311/311/299 312/312/300
f 312/312/300 251/251/246 314/314/302
f 314/314/302 313/313/301 312/312/300
f 287/287/282 303/303/12 315/315/303
f 285/285/280 287/287/282 315/315/303
f 316/316/304 315/315/303 303/303/12
f 317/317/305 285/285/280 315/315/303
f 285/285/280 317/317/305 283/283/278
f 315/315/303 316/316/304 318/318/306
f 317/317/305 315/315/303 318/318/306
f 318/318/306 316/316/304 319/319/307
f 319/319/307 317/317/305 318/318/306
f 316/316/304 320/320/9 319/319/307
f 321/321/308 283/283/278 317/317/305
f 317/317/305 319/319/307 321/321/308
f 319/319/307 320/320/9 322/322/309
f 322/322/309 321/321/308 319/319/307
f 322/322/309 320/320/9 323/323/5
f 324/324/1 322/322/309 323/323/5
f 283/283/278 321/321/308 325/325/310
f 282/282/277 283/283/278 325/325/310
f 326/326/311 325/325/310 321/321/308
f 321/321/308 322/322/309 326/326/311
f 327/327/312 282/282/277 325/325/310
f 325/325/310 326/326/311 327/327/312
f 322/322/309 324/324/1 328/328/313
f 329/329/2 328/328/313 324/324/1
f 328/328/313 329/329/2 330/330/314
f 331/331/315 328/328/313 330/330/314
f 332/332/316 322/322/309 328/328/313
f 331/331/315 332/332/316 328/328/313
f 332/332/316 326/326/311 322/322/309
f 332/332/316 331/331/315 333/333/317
f 326/326/311 332/332/316 334/334/318
f 333/333/317 334/334/318 332/332/316
f 334/334/318 327/327/312 326/326/311
f 335/335/319 334/334/318 333/333/317
f 336/336/320 327/327/312 334/334/318
f 334/334/318 335/335/319 336/336/320
f 335/335/319 337/337/321 338/338/322
f 336/336/320 335/335/319 338/338/322
f 327/327/312 336/336/320 339/339/323
f 338/338/322 339/339/323 336/336/320
f 282/282/277 327/327/312 339/339/323
f 339/339/323 338/338/322 340/340/324
f 339/339/323 280/280/275 282/282/277
f 280/280/275 339/339/323 340/340/324
f 341/341/325 342/342/326 343/343/327
f 343/343/327 344/344/328 341/341/325
f 345/345/329 342/342/326 341/341/325
f 342/342/326 345/345/329 346/346/330
f 346/346/330 345/345/329 347/347/331
f 344/344/328 348/348/332 341/341/325
f 348/348/332 344/344/328 349/349/333
f 349/349/333 350/350/334 348/348/332
f 341/341/325 351/351/335 345/345/329
f 351/351/335 341/341/325 348/348/332
f 347/347/331 345/345/329 352/352/336
f 345/345/329 351/351/335 352/352/336
f 347/347/331 352/352/336 353/353/337
f 353/353/337 352/352/336 354/354/338
f 348/348/332 350/350/334 355/355/339
f 348/348/332 355/355/339 351/351/335
f 350/350/334 356/356/340 355/355/339
f 357/357/341 355/355/339 356/356/340
f 352/352/336 358/358/342 354/354/338
f 352/352/336 351/351/335 358/358/342
f 354/354/338 358/358/342 359/359/343
f 358/358/342 360/360/344 359/359/343
f 355/355/339 357/357/341 361/361/345
f 351/351/335 355/355/339 361/361/345
f 361/361/345 357/357/341 362/362/346
f 363/363/347 361/361/345 362/362/346
f 351/351/335 364/364/348 358/358/342
f 364/364/348 351/351/335 361/361/345
f 360/360/344 358/358/342 364/364/348
f 361/361/345 363/363/347 364/364/348
f 364/364/348 365/365/349 360/360/344
f 365/365/349 364/364/348 363/363/347
f 366/366/350 367/367/351 368/368/352
f 369/369/353 368/368/352 367/367/351
f 366/366/350 370/370/354 367/367/351
f 370/370/354 366/366/350 371/371/355
f 372/372/356 370/370/354 371/371/355
f 373/373/357 369/369/353 367/367/351
f 369/369/353 373/373/357 374/374/358
f 373/373/357 375/375/359 374/374/358
f 370/370/354 372/372/356 376/376/360
f 377/377/361 376/376/360 372/372/356
f 376/376/360 377/377/361 378/378/362
f 379/379/363 367/367/351 370/370/354
f 376/376/360 379/379/363 370/370/354
f 367/367/351 379/379/363 373/373/357
f 378/378/362 380/380/364 376/376/360
f 379/379/363 376/376/360 380/380/364
f 380/380/364 378/378/362 381/381/365
f 382/382/366 380/380/364 381/381/365
f 380/380/364 382/382/366 383/383/367
f 383/383/367 379/379/363 380/380/364
f 384/384/368 383/383/367 382/382/366
f 383/383/367 384/384/368 385/385/369
f 385/385/369 386/386/370 383/383/367
f 379/379/363 383/383/367 386/386/370
f 386/386/370 385/385/369 387/387/371
f 388/388/372 386/386/370 387/387/371
f 389/389/373 379/379/363 386/386/370
f 386/386/370 388/388/372 389/389/373
f 379/379/363 389/389/373 373/373/357
f 375/375/359 373/373/357 389/389/373
f 389/389/373 388/388/372 390/390/374
f 375/375/359 389/389/373 390/390/374
